<?xml version="1.0" encoding="utf-8"?>
<!-- Generator: Adobe Illustrator 19.2.1, SVG Export Plug-In . SVG Version: 6.00 Build 0)  -->
<svg version="1.1" id="Capa_1" xmlns="http://www.w3.org/2000/svg" xmlns:xlink="http://www.w3.org/1999/xlink" x="0px" y="0px"
	 viewBox="0 0 465.02 300" enable-background="new 0 0 465.02 300" xml:space="preserve">
<g>
	<g id="Bicycle_2_">
		<g>
			<path d="M-0.001,199.976c0,50.543,40.588,91.676,90.451,91.676c46.597,0,84.624-36.031,89.476-81.971l49.046,1.927
				l79.522-109.498c1.429,3.854,2.789,7.732,4.399,11.564c2.064,4.943,4.263,9.592,6.44,14.24
				c-21.247,16.78-35.192,42.698-35.192,72.062c0,50.543,40.565,91.676,90.428,91.676c49.885,0,90.451-41.133,90.451-91.676
				c0-50.566-40.566-91.676-90.452-91.677c-12.766,0-24.875,2.744-35.895,7.619c-1.701-3.673-3.447-7.278-5.057-11.133
				C314.841,59.73,308.447,8.847,308.379,8.348l-0.181,0.023V8.348l-70.27,0.068v22.675l51.337,0.045
				c2.132,11.655,5.533,27.392,10.476,44.534l-0.544,0.771H181.308l-9.977-22.652h9.886V31.113h-68.025v22.675h33.491l11.542,26.19
				l-27.981,38.072c-12.063-6.031-25.441-9.75-39.772-9.75C40.587,108.3,0.021,149.41-0.001,199.976z M329.808,148.596
				c9.478,17.187,18.752,30.929,25.6,40.316c-2.381,3.582-4.104,7.641-4.104,12.267c0,12.517,10.158,22.675,22.675,22.675
				s22.675-10.158,22.675-22.675c0-11.723-9.024-21.043-20.43-22.222c-6.553-8.73-16.847-23.514-27.346-42.652
				c7.936-3.311,16.598-5.193,25.691-5.193c37.46,0,67.935,30.884,67.935,68.864s-30.475,68.864-67.935,68.864
				s-67.935-30.906-67.935-68.864C306.634,179.455,315.727,161.224,329.808,148.596z M169.131,104.696l36.666,83.172l-26.212-1.043
				c-3.197-22.222-14.172-41.7-30.158-55.781L169.131,104.696z M109.814,184.081l26.099-34.92
				c10.431,9.591,18.073,22.267,21.043,36.779L109.814,184.081z M282.621,99.253l-56.779,78.184l-34.466-78.184H282.621z
				 M22.56,199.977c0-37.98,30.476-68.864,67.935-68.864c9.274,0,18.14,1.904,26.212,5.351l-31.745,43.151
				c-9.75,2.539-17.097,10.997-17.097,21.541c0,12.517,10.158,22.675,22.675,22.675c10.453,0,18.888-7.211,21.496-16.848
				l45.486,1.791c-4.331,33.764-32.584,60.044-67.05,60.044C52.99,268.818,22.515,237.934,22.56,199.977z"/>
		</g>
	</g>
</g>
</svg>
