<?xml version="1.0" encoding="utf-8"?>
<!-- Generator: Adobe Illustrator 19.2.1, SVG Export Plug-In . SVG Version: 6.00 Build 0)  -->
<svg version="1.1" id="Capa_1" xmlns="http://www.w3.org/2000/svg" xmlns:xlink="http://www.w3.org/1999/xlink" x="0px" y="0px"
	 viewBox="0 0 317.452 317.452" enable-background="new 0 0 317.452 317.452" xml:space="preserve">
<g>
	<g id="Focus">
		<g>
			<path d="M113.376,158.726c0-6.258-5.079-11.338-11.338-11.338h-90.7C5.079,147.388,0,152.468,0,158.726
				s5.079,11.338,11.338,11.338h90.701C108.296,170.064,113.376,164.984,113.376,158.726z M71.155,181.401H47.913
				c8.299,40.316,38.004,72.651,76.801,84.941v-16.916c0-2.245,0.249-4.399,0.658-6.53C98.728,232.33,78.456,209.496,71.155,181.401
				z M124.713,74.76V51.11c-38.797,12.29-68.501,44.624-76.8,84.941h23.219C78.365,108.16,98.365,85.44,124.713,74.76z
				 M246.32,136.051h23.219c-8.299-40.317-37.98-72.651-76.8-84.941v23.627C219.087,85.44,239.087,108.16,246.32,136.051z
				 M306.114,147.388h-90.701c-6.258,0-11.338,5.079-11.338,11.338c0,6.258,5.079,11.338,11.338,11.338h90.701
				c6.258,0,11.338-5.079,11.338-11.338C317.452,152.468,312.373,147.388,306.114,147.388z M192.081,242.896
				c0.408,2.131,0.658,4.286,0.658,6.53v16.916c38.82-12.29,68.502-44.602,76.801-84.941h-23.242
				C239.019,209.496,218.747,232.33,192.081,242.896z M158.726,0c-6.258,0-11.338,5.079-11.338,11.338v90.701
				c0,6.258,5.079,11.338,11.338,11.338c6.258,0,11.338-5.079,11.338-11.338V11.338C170.064,5.079,164.984,0,158.726,0z
				 M158.726,204.076c-6.258,0-11.338,5.079-11.338,11.338v90.701c0,6.258,5.079,11.338,11.338,11.338
				c6.258,0,11.338-5.079,11.338-11.338v-90.701C170.064,209.156,164.984,204.076,158.726,204.076z"/>
		</g>
	</g>
</g>
</svg>
